<?xml version="1.0" encoding="utf-8" standalone="no"?>
<!DOCTYPE svg PUBLIC "-//W3C//DTD SVG 1.1//EN"
  "http://www.w3.org/Graphics/SVG/1.1/DTD/svg11.dtd">
<svg height="595.44pt" version="1.1" viewBox="0 0 842.4 595.44" width="842.4pt" xmlns="http://www.w3.org/2000/svg" xmlns:xlink="http://www.w3.org/1999/xlink">
 <metadata>
  <rdf:RDF xmlns:cc="http://creativecommons.org/ns#" xmlns:dc="http://purl.org/dc/elements/1.1/" xmlns:rdf="http://www.w3.org/1999/02/22-rdf-syntax-ns#">
   <cc:Work>
    <dc:type rdf:resource="http://purl.org/dc/dcmitype/StillImage"/>
    <dc:date>2022-09-28T08:54:40.543040</dc:date>
    <dc:format>image/svg+xml</dc:format>
    <dc:creator>
     <cc:Agent>
      <dc:title>Matplotlib v3.4.3, https://matplotlib.org/</dc:title>
     </cc:Agent>
    </dc:creator>
   </cc:Work>
  </rdf:RDF>
 </metadata>
 <defs>
  <style type="text/css">*{stroke-linecap:butt;stroke-linejoin:round;}</style>
 </defs>
 <g id="figure_1">
  <g id="patch_1">
   <path d="M 0 595.44 
L 842.4 595.44 
L 842.4 0 
L 0 0 
z
" style="fill:#ffffff;"/>
  </g>
  <g id="axes_1">
   <g id="patch_2">
    <path d="M 105.3 521.01 
L 758.16 521.01 
L 758.16 71.4528 
L 105.3 71.4528 
z
" style="fill:#eaeaf2;"/>
   </g>
   <g id="matplotlib.axis_1">
    <g id="xtick_1">
     <g id="text_1">
      <!-- 1.0 -->
      <g style="fill:#262626;" transform="translate(179.9575 537.667812)scale(0.1 -0.1)">
       <defs>
        <path d="M 2384 0 
L 1822 0 
L 1822 3584 
Q 1619 3391 1289 3197 
Q 959 3003 697 2906 
L 697 3450 
Q 1169 3672 1522 3987 
Q 1875 4303 2022 4600 
L 2384 4600 
L 2384 0 
z
" id="ArialMT-31" transform="scale(0.015625)"/>
        <path d="M 581 0 
L 581 641 
L 1222 641 
L 1222 0 
L 581 0 
z
" id="ArialMT-2e" transform="scale(0.015625)"/>
        <path d="M 266 2259 
Q 266 3072 433 3567 
Q 600 4063 929 4331 
Q 1259 4600 1759 4600 
Q 2128 4600 2406 4451 
Q 2684 4303 2865 4023 
Q 3047 3744 3150 3342 
Q 3253 2941 3253 2259 
Q 3253 1453 3087 958 
Q 2922 463 2592 192 
Q 2263 -78 1759 -78 
Q 1097 -78 719 397 
Q 266 969 266 2259 
z
M 844 2259 
Q 844 1131 1108 757 
Q 1372 384 1759 384 
Q 2147 384 2411 759 
Q 2675 1134 2675 2259 
Q 2675 3391 2411 3762 
Q 2147 4134 1753 4134 
Q 1366 4134 1134 3806 
Q 844 3388 844 2259 
z
" id="ArialMT-30" transform="scale(0.015625)"/>
       </defs>
       <use xlink:href="#ArialMT-31"/>
       <use x="55.615234" xlink:href="#ArialMT-2e"/>
       <use x="83.398438" xlink:href="#ArialMT-30"/>
      </g>
     </g>
    </g>
    <g id="xtick_2">
     <g id="text_2">
      <!-- 2.0 -->
      <g style="fill:#262626;" transform="translate(343.1725 537.667812)scale(0.1 -0.1)">
       <defs>
        <path d="M 3222 541 
L 3222 0 
L 194 0 
Q 188 203 259 391 
Q 375 700 629 1000 
Q 884 1300 1366 1694 
Q 2113 2306 2375 2664 
Q 2638 3022 2638 3341 
Q 2638 3675 2398 3904 
Q 2159 4134 1775 4134 
Q 1369 4134 1125 3890 
Q 881 3647 878 3216 
L 300 3275 
Q 359 3922 746 4261 
Q 1134 4600 1788 4600 
Q 2447 4600 2831 4234 
Q 3216 3869 3216 3328 
Q 3216 3053 3103 2787 
Q 2991 2522 2730 2228 
Q 2469 1934 1863 1422 
Q 1356 997 1212 845 
Q 1069 694 975 541 
L 3222 541 
z
" id="ArialMT-32" transform="scale(0.015625)"/>
       </defs>
       <use xlink:href="#ArialMT-32"/>
       <use x="55.615234" xlink:href="#ArialMT-2e"/>
       <use x="83.398438" xlink:href="#ArialMT-30"/>
      </g>
     </g>
    </g>
    <g id="xtick_3">
     <g id="text_3">
      <!-- 3.0 -->
      <g style="fill:#262626;" transform="translate(506.3875 537.667812)scale(0.1 -0.1)">
       <defs>
        <path d="M 269 1209 
L 831 1284 
Q 928 806 1161 595 
Q 1394 384 1728 384 
Q 2125 384 2398 659 
Q 2672 934 2672 1341 
Q 2672 1728 2419 1979 
Q 2166 2231 1775 2231 
Q 1616 2231 1378 2169 
L 1441 2663 
Q 1497 2656 1531 2656 
Q 1891 2656 2178 2843 
Q 2466 3031 2466 3422 
Q 2466 3731 2256 3934 
Q 2047 4138 1716 4138 
Q 1388 4138 1169 3931 
Q 950 3725 888 3313 
L 325 3413 
Q 428 3978 793 4289 
Q 1159 4600 1703 4600 
Q 2078 4600 2393 4439 
Q 2709 4278 2876 4000 
Q 3044 3722 3044 3409 
Q 3044 3113 2884 2869 
Q 2725 2625 2413 2481 
Q 2819 2388 3044 2092 
Q 3269 1797 3269 1353 
Q 3269 753 2831 336 
Q 2394 -81 1725 -81 
Q 1122 -81 723 278 
Q 325 638 269 1209 
z
" id="ArialMT-33" transform="scale(0.015625)"/>
       </defs>
       <use xlink:href="#ArialMT-33"/>
       <use x="55.615234" xlink:href="#ArialMT-2e"/>
       <use x="83.398438" xlink:href="#ArialMT-30"/>
      </g>
     </g>
    </g>
    <g id="xtick_4">
     <g id="text_4">
      <!-- 4.0 -->
      <g style="fill:#262626;" transform="translate(669.6025 537.667812)scale(0.1 -0.1)">
       <defs>
        <path d="M 2069 0 
L 2069 1097 
L 81 1097 
L 81 1613 
L 2172 4581 
L 2631 4581 
L 2631 1613 
L 3250 1613 
L 3250 1097 
L 2631 1097 
L 2631 0 
L 2069 0 
z
M 2069 1613 
L 2069 3678 
L 634 1613 
L 2069 1613 
z
" id="ArialMT-34" transform="scale(0.015625)"/>
       </defs>
       <use xlink:href="#ArialMT-34"/>
       <use x="55.615234" xlink:href="#ArialMT-2e"/>
       <use x="83.398438" xlink:href="#ArialMT-30"/>
      </g>
     </g>
    </g>
    <g id="text_5">
     <!-- Trial Number -->
     <g style="fill:#262626;" transform="translate(388.672969 554.392031)scale(0.15 -0.15)">
      <defs>
       <path d="M 1659 0 
L 1659 4041 
L 150 4041 
L 150 4581 
L 3781 4581 
L 3781 4041 
L 2266 4041 
L 2266 0 
L 1659 0 
z
" id="ArialMT-54" transform="scale(0.015625)"/>
       <path d="M 416 0 
L 416 3319 
L 922 3319 
L 922 2816 
Q 1116 3169 1280 3281 
Q 1444 3394 1641 3394 
Q 1925 3394 2219 3213 
L 2025 2691 
Q 1819 2813 1613 2813 
Q 1428 2813 1281 2702 
Q 1134 2591 1072 2394 
Q 978 2094 978 1738 
L 978 0 
L 416 0 
z
" id="ArialMT-72" transform="scale(0.015625)"/>
       <path d="M 425 3934 
L 425 4581 
L 988 4581 
L 988 3934 
L 425 3934 
z
M 425 0 
L 425 3319 
L 988 3319 
L 988 0 
L 425 0 
z
" id="ArialMT-69" transform="scale(0.015625)"/>
       <path d="M 2588 409 
Q 2275 144 1986 34 
Q 1697 -75 1366 -75 
Q 819 -75 525 192 
Q 231 459 231 875 
Q 231 1119 342 1320 
Q 453 1522 633 1644 
Q 813 1766 1038 1828 
Q 1203 1872 1538 1913 
Q 2219 1994 2541 2106 
Q 2544 2222 2544 2253 
Q 2544 2597 2384 2738 
Q 2169 2928 1744 2928 
Q 1347 2928 1158 2789 
Q 969 2650 878 2297 
L 328 2372 
Q 403 2725 575 2942 
Q 747 3159 1072 3276 
Q 1397 3394 1825 3394 
Q 2250 3394 2515 3294 
Q 2781 3194 2906 3042 
Q 3031 2891 3081 2659 
Q 3109 2516 3109 2141 
L 3109 1391 
Q 3109 606 3145 398 
Q 3181 191 3288 0 
L 2700 0 
Q 2613 175 2588 409 
z
M 2541 1666 
Q 2234 1541 1622 1453 
Q 1275 1403 1131 1340 
Q 988 1278 909 1158 
Q 831 1038 831 891 
Q 831 666 1001 516 
Q 1172 366 1500 366 
Q 1825 366 2078 508 
Q 2331 650 2450 897 
Q 2541 1088 2541 1459 
L 2541 1666 
z
" id="ArialMT-61" transform="scale(0.015625)"/>
       <path d="M 409 0 
L 409 4581 
L 972 4581 
L 972 0 
L 409 0 
z
" id="ArialMT-6c" transform="scale(0.015625)"/>
       <path id="ArialMT-20" transform="scale(0.015625)"/>
       <path d="M 488 0 
L 488 4581 
L 1109 4581 
L 3516 984 
L 3516 4581 
L 4097 4581 
L 4097 0 
L 3475 0 
L 1069 3600 
L 1069 0 
L 488 0 
z
" id="ArialMT-4e" transform="scale(0.015625)"/>
       <path d="M 2597 0 
L 2597 488 
Q 2209 -75 1544 -75 
Q 1250 -75 995 37 
Q 741 150 617 320 
Q 494 491 444 738 
Q 409 903 409 1263 
L 409 3319 
L 972 3319 
L 972 1478 
Q 972 1038 1006 884 
Q 1059 663 1231 536 
Q 1403 409 1656 409 
Q 1909 409 2131 539 
Q 2353 669 2445 892 
Q 2538 1116 2538 1541 
L 2538 3319 
L 3100 3319 
L 3100 0 
L 2597 0 
z
" id="ArialMT-75" transform="scale(0.015625)"/>
       <path d="M 422 0 
L 422 3319 
L 925 3319 
L 925 2853 
Q 1081 3097 1340 3245 
Q 1600 3394 1931 3394 
Q 2300 3394 2536 3241 
Q 2772 3088 2869 2813 
Q 3263 3394 3894 3394 
Q 4388 3394 4653 3120 
Q 4919 2847 4919 2278 
L 4919 0 
L 4359 0 
L 4359 2091 
Q 4359 2428 4304 2576 
Q 4250 2725 4106 2815 
Q 3963 2906 3769 2906 
Q 3419 2906 3187 2673 
Q 2956 2441 2956 1928 
L 2956 0 
L 2394 0 
L 2394 2156 
Q 2394 2531 2256 2718 
Q 2119 2906 1806 2906 
Q 1569 2906 1367 2781 
Q 1166 2656 1075 2415 
Q 984 2175 984 1722 
L 984 0 
L 422 0 
z
" id="ArialMT-6d" transform="scale(0.015625)"/>
       <path d="M 941 0 
L 419 0 
L 419 4581 
L 981 4581 
L 981 2947 
Q 1338 3394 1891 3394 
Q 2197 3394 2470 3270 
Q 2744 3147 2920 2923 
Q 3097 2700 3197 2384 
Q 3297 2069 3297 1709 
Q 3297 856 2875 390 
Q 2453 -75 1863 -75 
Q 1275 -75 941 416 
L 941 0 
z
M 934 1684 
Q 934 1088 1097 822 
Q 1363 388 1816 388 
Q 2184 388 2453 708 
Q 2722 1028 2722 1663 
Q 2722 2313 2464 2622 
Q 2206 2931 1841 2931 
Q 1472 2931 1203 2611 
Q 934 2291 934 1684 
z
" id="ArialMT-62" transform="scale(0.015625)"/>
       <path d="M 2694 1069 
L 3275 997 
Q 3138 488 2766 206 
Q 2394 -75 1816 -75 
Q 1088 -75 661 373 
Q 234 822 234 1631 
Q 234 2469 665 2931 
Q 1097 3394 1784 3394 
Q 2450 3394 2872 2941 
Q 3294 2488 3294 1666 
Q 3294 1616 3291 1516 
L 816 1516 
Q 847 969 1125 678 
Q 1403 388 1819 388 
Q 2128 388 2347 550 
Q 2566 713 2694 1069 
z
M 847 1978 
L 2700 1978 
Q 2663 2397 2488 2606 
Q 2219 2931 1791 2931 
Q 1403 2931 1139 2672 
Q 875 2413 847 1978 
z
" id="ArialMT-65" transform="scale(0.015625)"/>
      </defs>
      <use xlink:href="#ArialMT-54"/>
      <use x="57.333984" xlink:href="#ArialMT-72"/>
      <use x="90.634766" xlink:href="#ArialMT-69"/>
      <use x="112.851562" xlink:href="#ArialMT-61"/>
      <use x="168.466797" xlink:href="#ArialMT-6c"/>
      <use x="190.683594" xlink:href="#ArialMT-20"/>
      <use x="218.466797" xlink:href="#ArialMT-4e"/>
      <use x="290.683594" xlink:href="#ArialMT-75"/>
      <use x="346.298828" xlink:href="#ArialMT-6d"/>
      <use x="429.599609" xlink:href="#ArialMT-62"/>
      <use x="485.214844" xlink:href="#ArialMT-65"/>
      <use x="540.830078" xlink:href="#ArialMT-72"/>
     </g>
    </g>
   </g>
   <g id="matplotlib.axis_2">
    <g id="ytick_1">
     <g id="line2d_1">
      <path clip-path="url(#p7544b16200)" d="M 105.3 521.01 
L 758.16 521.01 
" style="fill:none;stroke:#ffffff;stroke-linecap:round;"/>
     </g>
     <g id="text_6">
      <!-- 0 -->
      <g style="fill:#262626;" transform="translate(90.239063 524.588906)scale(0.1 -0.1)">
       <use xlink:href="#ArialMT-30"/>
      </g>
     </g>
    </g>
    <g id="ytick_2">
     <g id="line2d_2">
      <path clip-path="url(#p7544b16200)" d="M 105.3 468.120918 
L 758.16 468.120918 
" style="fill:none;stroke:#ffffff;stroke-linecap:round;"/>
     </g>
     <g id="text_7">
      <!-- 10 -->
      <g style="fill:#262626;" transform="translate(84.678125 471.699824)scale(0.1 -0.1)">
       <use xlink:href="#ArialMT-31"/>
       <use x="55.615234" xlink:href="#ArialMT-30"/>
      </g>
     </g>
    </g>
    <g id="ytick_3">
     <g id="line2d_3">
      <path clip-path="url(#p7544b16200)" d="M 105.3 415.231835 
L 758.16 415.231835 
" style="fill:none;stroke:#ffffff;stroke-linecap:round;"/>
     </g>
     <g id="text_8">
      <!-- 20 -->
      <g style="fill:#262626;" transform="translate(84.678125 418.810742)scale(0.1 -0.1)">
       <use xlink:href="#ArialMT-32"/>
       <use x="55.615234" xlink:href="#ArialMT-30"/>
      </g>
     </g>
    </g>
    <g id="ytick_4">
     <g id="line2d_4">
      <path clip-path="url(#p7544b16200)" d="M 105.3 362.342753 
L 758.16 362.342753 
" style="fill:none;stroke:#ffffff;stroke-linecap:round;"/>
     </g>
     <g id="text_9">
      <!-- 30 -->
      <g style="fill:#262626;" transform="translate(84.678125 365.921659)scale(0.1 -0.1)">
       <use xlink:href="#ArialMT-33"/>
       <use x="55.615234" xlink:href="#ArialMT-30"/>
      </g>
     </g>
    </g>
    <g id="ytick_5">
     <g id="line2d_5">
      <path clip-path="url(#p7544b16200)" d="M 105.3 309.453671 
L 758.16 309.453671 
" style="fill:none;stroke:#ffffff;stroke-linecap:round;"/>
     </g>
     <g id="text_10">
      <!-- 40 -->
      <g style="fill:#262626;" transform="translate(84.678125 313.032577)scale(0.1 -0.1)">
       <use xlink:href="#ArialMT-34"/>
       <use x="55.615234" xlink:href="#ArialMT-30"/>
      </g>
     </g>
    </g>
    <g id="ytick_6">
     <g id="line2d_6">
      <path clip-path="url(#p7544b16200)" d="M 105.3 256.564588 
L 758.16 256.564588 
" style="fill:none;stroke:#ffffff;stroke-linecap:round;"/>
     </g>
     <g id="text_11">
      <!-- 50 -->
      <g style="fill:#262626;" transform="translate(84.678125 260.143494)scale(0.1 -0.1)">
       <defs>
        <path d="M 266 1200 
L 856 1250 
Q 922 819 1161 601 
Q 1400 384 1738 384 
Q 2144 384 2425 690 
Q 2706 997 2706 1503 
Q 2706 1984 2436 2262 
Q 2166 2541 1728 2541 
Q 1456 2541 1237 2417 
Q 1019 2294 894 2097 
L 366 2166 
L 809 4519 
L 3088 4519 
L 3088 3981 
L 1259 3981 
L 1013 2750 
Q 1425 3038 1878 3038 
Q 2478 3038 2890 2622 
Q 3303 2206 3303 1553 
Q 3303 931 2941 478 
Q 2500 -78 1738 -78 
Q 1113 -78 717 272 
Q 322 622 266 1200 
z
" id="ArialMT-35" transform="scale(0.015625)"/>
       </defs>
       <use xlink:href="#ArialMT-35"/>
       <use x="55.615234" xlink:href="#ArialMT-30"/>
      </g>
     </g>
    </g>
    <g id="ytick_7">
     <g id="line2d_7">
      <path clip-path="url(#p7544b16200)" d="M 105.3 203.675506 
L 758.16 203.675506 
" style="fill:none;stroke:#ffffff;stroke-linecap:round;"/>
     </g>
     <g id="text_12">
      <!-- 60 -->
      <g style="fill:#262626;" transform="translate(84.678125 207.254412)scale(0.1 -0.1)">
       <defs>
        <path d="M 3184 3459 
L 2625 3416 
Q 2550 3747 2413 3897 
Q 2184 4138 1850 4138 
Q 1581 4138 1378 3988 
Q 1113 3794 959 3422 
Q 806 3050 800 2363 
Q 1003 2672 1297 2822 
Q 1591 2972 1913 2972 
Q 2475 2972 2870 2558 
Q 3266 2144 3266 1488 
Q 3266 1056 3080 686 
Q 2894 316 2569 119 
Q 2244 -78 1831 -78 
Q 1128 -78 684 439 
Q 241 956 241 2144 
Q 241 3472 731 4075 
Q 1159 4600 1884 4600 
Q 2425 4600 2770 4297 
Q 3116 3994 3184 3459 
z
M 888 1484 
Q 888 1194 1011 928 
Q 1134 663 1356 523 
Q 1578 384 1822 384 
Q 2178 384 2434 671 
Q 2691 959 2691 1453 
Q 2691 1928 2437 2201 
Q 2184 2475 1800 2475 
Q 1419 2475 1153 2201 
Q 888 1928 888 1484 
z
" id="ArialMT-36" transform="scale(0.015625)"/>
       </defs>
       <use xlink:href="#ArialMT-36"/>
       <use x="55.615234" xlink:href="#ArialMT-30"/>
      </g>
     </g>
    </g>
    <g id="ytick_8">
     <g id="line2d_8">
      <path clip-path="url(#p7544b16200)" d="M 105.3 150.786424 
L 758.16 150.786424 
" style="fill:none;stroke:#ffffff;stroke-linecap:round;"/>
     </g>
     <g id="text_13">
      <!-- 70 -->
      <g style="fill:#262626;" transform="translate(84.678125 154.36533)scale(0.1 -0.1)">
       <defs>
        <path d="M 303 3981 
L 303 4522 
L 3269 4522 
L 3269 4084 
Q 2831 3619 2401 2847 
Q 1972 2075 1738 1259 
Q 1569 684 1522 0 
L 944 0 
Q 953 541 1156 1306 
Q 1359 2072 1739 2783 
Q 2119 3494 2547 3981 
L 303 3981 
z
" id="ArialMT-37" transform="scale(0.015625)"/>
       </defs>
       <use xlink:href="#ArialMT-37"/>
       <use x="55.615234" xlink:href="#ArialMT-30"/>
      </g>
     </g>
    </g>
    <g id="ytick_9">
     <g id="line2d_9">
      <path clip-path="url(#p7544b16200)" d="M 105.3 97.897341 
L 758.16 97.897341 
" style="fill:none;stroke:#ffffff;stroke-linecap:round;"/>
     </g>
     <g id="text_14">
      <!-- 80 -->
      <g style="fill:#262626;" transform="translate(84.678125 101.476247)scale(0.1 -0.1)">
       <defs>
        <path d="M 1131 2484 
Q 781 2613 612 2850 
Q 444 3088 444 3419 
Q 444 3919 803 4259 
Q 1163 4600 1759 4600 
Q 2359 4600 2725 4251 
Q 3091 3903 3091 3403 
Q 3091 3084 2923 2848 
Q 2756 2613 2416 2484 
Q 2838 2347 3058 2040 
Q 3278 1734 3278 1309 
Q 3278 722 2862 322 
Q 2447 -78 1769 -78 
Q 1091 -78 675 323 
Q 259 725 259 1325 
Q 259 1772 486 2073 
Q 713 2375 1131 2484 
z
M 1019 3438 
Q 1019 3113 1228 2906 
Q 1438 2700 1772 2700 
Q 2097 2700 2305 2904 
Q 2513 3109 2513 3406 
Q 2513 3716 2298 3927 
Q 2084 4138 1766 4138 
Q 1444 4138 1231 3931 
Q 1019 3725 1019 3438 
z
M 838 1322 
Q 838 1081 952 856 
Q 1066 631 1291 507 
Q 1516 384 1775 384 
Q 2178 384 2440 643 
Q 2703 903 2703 1303 
Q 2703 1709 2433 1975 
Q 2163 2241 1756 2241 
Q 1359 2241 1098 1978 
Q 838 1716 838 1322 
z
" id="ArialMT-38" transform="scale(0.015625)"/>
       </defs>
       <use xlink:href="#ArialMT-38"/>
       <use x="55.615234" xlink:href="#ArialMT-30"/>
      </g>
     </g>
    </g>
    <g id="text_15">
     <!-- Stiffness (N/cm) -->
     <g style="fill:#262626;" transform="translate(77.521094 349.436869)rotate(-90)scale(0.15 -0.15)">
      <defs>
       <path d="M 288 1472 
L 859 1522 
Q 900 1178 1048 958 
Q 1197 738 1509 602 
Q 1822 466 2213 466 
Q 2559 466 2825 569 
Q 3091 672 3220 851 
Q 3350 1031 3350 1244 
Q 3350 1459 3225 1620 
Q 3100 1781 2813 1891 
Q 2628 1963 1997 2114 
Q 1366 2266 1113 2400 
Q 784 2572 623 2826 
Q 463 3081 463 3397 
Q 463 3744 659 4045 
Q 856 4347 1234 4503 
Q 1613 4659 2075 4659 
Q 2584 4659 2973 4495 
Q 3363 4331 3572 4012 
Q 3781 3694 3797 3291 
L 3216 3247 
Q 3169 3681 2898 3903 
Q 2628 4125 2100 4125 
Q 1550 4125 1298 3923 
Q 1047 3722 1047 3438 
Q 1047 3191 1225 3031 
Q 1400 2872 2139 2705 
Q 2878 2538 3153 2413 
Q 3553 2228 3743 1945 
Q 3934 1663 3934 1294 
Q 3934 928 3725 604 
Q 3516 281 3123 101 
Q 2731 -78 2241 -78 
Q 1619 -78 1198 103 
Q 778 284 539 648 
Q 300 1013 288 1472 
z
" id="ArialMT-53" transform="scale(0.015625)"/>
       <path d="M 1650 503 
L 1731 6 
Q 1494 -44 1306 -44 
Q 1000 -44 831 53 
Q 663 150 594 308 
Q 525 466 525 972 
L 525 2881 
L 113 2881 
L 113 3319 
L 525 3319 
L 525 4141 
L 1084 4478 
L 1084 3319 
L 1650 3319 
L 1650 2881 
L 1084 2881 
L 1084 941 
Q 1084 700 1114 631 
Q 1144 563 1211 522 
Q 1278 481 1403 481 
Q 1497 481 1650 503 
z
" id="ArialMT-74" transform="scale(0.015625)"/>
       <path d="M 556 0 
L 556 2881 
L 59 2881 
L 59 3319 
L 556 3319 
L 556 3672 
Q 556 4006 616 4169 
Q 697 4388 901 4523 
Q 1106 4659 1475 4659 
Q 1713 4659 2000 4603 
L 1916 4113 
Q 1741 4144 1584 4144 
Q 1328 4144 1222 4034 
Q 1116 3925 1116 3625 
L 1116 3319 
L 1763 3319 
L 1763 2881 
L 1116 2881 
L 1116 0 
L 556 0 
z
" id="ArialMT-66" transform="scale(0.015625)"/>
       <path d="M 422 0 
L 422 3319 
L 928 3319 
L 928 2847 
Q 1294 3394 1984 3394 
Q 2284 3394 2536 3286 
Q 2788 3178 2913 3003 
Q 3038 2828 3088 2588 
Q 3119 2431 3119 2041 
L 3119 0 
L 2556 0 
L 2556 2019 
Q 2556 2363 2490 2533 
Q 2425 2703 2258 2804 
Q 2091 2906 1866 2906 
Q 1506 2906 1245 2678 
Q 984 2450 984 1813 
L 984 0 
L 422 0 
z
" id="ArialMT-6e" transform="scale(0.015625)"/>
       <path d="M 197 991 
L 753 1078 
Q 800 744 1014 566 
Q 1228 388 1613 388 
Q 2000 388 2187 545 
Q 2375 703 2375 916 
Q 2375 1106 2209 1216 
Q 2094 1291 1634 1406 
Q 1016 1563 777 1677 
Q 538 1791 414 1992 
Q 291 2194 291 2438 
Q 291 2659 392 2848 
Q 494 3038 669 3163 
Q 800 3259 1026 3326 
Q 1253 3394 1513 3394 
Q 1903 3394 2198 3281 
Q 2494 3169 2634 2976 
Q 2775 2784 2828 2463 
L 2278 2388 
Q 2241 2644 2061 2787 
Q 1881 2931 1553 2931 
Q 1166 2931 1000 2803 
Q 834 2675 834 2503 
Q 834 2394 903 2306 
Q 972 2216 1119 2156 
Q 1203 2125 1616 2013 
Q 2213 1853 2448 1751 
Q 2684 1650 2818 1456 
Q 2953 1263 2953 975 
Q 2953 694 2789 445 
Q 2625 197 2315 61 
Q 2006 -75 1616 -75 
Q 969 -75 630 194 
Q 291 463 197 991 
z
" id="ArialMT-73" transform="scale(0.015625)"/>
       <path d="M 1497 -1347 
Q 1031 -759 709 28 
Q 388 816 388 1659 
Q 388 2403 628 3084 
Q 909 3875 1497 4659 
L 1900 4659 
Q 1522 4009 1400 3731 
Q 1209 3300 1100 2831 
Q 966 2247 966 1656 
Q 966 153 1900 -1347 
L 1497 -1347 
z
" id="ArialMT-28" transform="scale(0.015625)"/>
       <path d="M 0 -78 
L 1328 4659 
L 1778 4659 
L 453 -78 
L 0 -78 
z
" id="ArialMT-2f" transform="scale(0.015625)"/>
       <path d="M 2588 1216 
L 3141 1144 
Q 3050 572 2676 248 
Q 2303 -75 1759 -75 
Q 1078 -75 664 370 
Q 250 816 250 1647 
Q 250 2184 428 2587 
Q 606 2991 970 3192 
Q 1334 3394 1763 3394 
Q 2303 3394 2647 3120 
Q 2991 2847 3088 2344 
L 2541 2259 
Q 2463 2594 2264 2762 
Q 2066 2931 1784 2931 
Q 1359 2931 1093 2626 
Q 828 2322 828 1663 
Q 828 994 1084 691 
Q 1341 388 1753 388 
Q 2084 388 2306 591 
Q 2528 794 2588 1216 
z
" id="ArialMT-63" transform="scale(0.015625)"/>
       <path d="M 791 -1347 
L 388 -1347 
Q 1322 153 1322 1656 
Q 1322 2244 1188 2822 
Q 1081 3291 891 3722 
Q 769 4003 388 4659 
L 791 4659 
Q 1378 3875 1659 3084 
Q 1900 2403 1900 1659 
Q 1900 816 1576 28 
Q 1253 -759 791 -1347 
z
" id="ArialMT-29" transform="scale(0.015625)"/>
      </defs>
      <use xlink:href="#ArialMT-53"/>
      <use x="66.699219" xlink:href="#ArialMT-74"/>
      <use x="94.482422" xlink:href="#ArialMT-69"/>
      <use x="116.699219" xlink:href="#ArialMT-66"/>
      <use x="142.732422" xlink:href="#ArialMT-66"/>
      <use x="170.515625" xlink:href="#ArialMT-6e"/>
      <use x="226.130859" xlink:href="#ArialMT-65"/>
      <use x="281.746094" xlink:href="#ArialMT-73"/>
      <use x="331.746094" xlink:href="#ArialMT-73"/>
      <use x="381.746094" xlink:href="#ArialMT-20"/>
      <use x="409.529297" xlink:href="#ArialMT-28"/>
      <use x="442.830078" xlink:href="#ArialMT-4e"/>
      <use x="515.046875" xlink:href="#ArialMT-2f"/>
      <use x="542.830078" xlink:href="#ArialMT-63"/>
      <use x="592.830078" xlink:href="#ArialMT-6d"/>
      <use x="676.130859" xlink:href="#ArialMT-29"/>
     </g>
    </g>
   </g>
   <g id="patch_3">
    <path clip-path="url(#p7544b16200)" d="M 121.94793 460.187555 
L 153.93807 460.187555 
L 153.93807 380.853932 
L 121.94793 380.853932 
L 121.94793 460.187555 
z
" style="fill:#96cac1;stroke:#6a6a6a;stroke-linejoin:miter;stroke-width:1.5;"/>
   </g>
   <g id="patch_4">
    <path clip-path="url(#p7544b16200)" d="M 154.59093 483.987642 
L 186.58107 483.987642 
L 186.58107 380.853932 
L 154.59093 380.853932 
L 154.59093 483.987642 
z
" style="fill:#f6f6bc;stroke:#6a6a6a;stroke-linejoin:miter;stroke-width:1.5;"/>
   </g>
   <g id="patch_5">
    <path clip-path="url(#p7544b16200)" d="M 187.23393 317.387033 
L 219.22407 317.387033 
L 219.22407 214.253322 
L 187.23393 214.253322 
L 187.23393 317.387033 
z
" style="fill:#c1bed6;stroke:#6a6a6a;stroke-linejoin:miter;stroke-width:1.5;"/>
   </g>
   <g id="patch_6">
    <path clip-path="url(#p7544b16200)" d="M 219.87693 285.653584 
L 251.86707 285.653584 
L 251.86707 182.519873 
L 219.87693 182.519873 
L 219.87693 285.653584 
z
" style="fill:#ea8e83;stroke:#6a6a6a;stroke-linejoin:miter;stroke-width:1.5;"/>
   </g>
   <g id="patch_7">
    <path clip-path="url(#p7544b16200)" d="M 285.16293 468.120918 
L 317.15307 468.120918 
L 317.15307 362.342753 
L 285.16293 362.342753 
L 285.16293 468.120918 
z
" style="fill:#96cac1;stroke:#6a6a6a;stroke-linejoin:miter;stroke-width:1.5;"/>
   </g>
   <g id="patch_8">
    <path clip-path="url(#p7544b16200)" d="M 317.80593 465.476464 
L 349.79607 465.476464 
L 349.79607 349.120482 
L 317.80593 349.120482 
L 317.80593 465.476464 
z
" style="fill:#f6f6bc;stroke:#6a6a6a;stroke-linejoin:miter;stroke-width:1.5;"/>
   </g>
   <g id="patch_9">
    <path clip-path="url(#p7544b16200)" d="M 350.44893 338.542666 
L 382.43907 338.542666 
L 382.43907 230.120047 
L 350.44893 230.120047 
L 350.44893 338.542666 
z
" style="fill:#c1bed6;stroke:#6a6a6a;stroke-linejoin:miter;stroke-width:1.5;"/>
   </g>
   <g id="patch_10">
    <path clip-path="url(#p7544b16200)" d="M 383.09193 298.875854 
L 415.08207 298.875854 
L 415.08207 182.519873 
L 383.09193 182.519873 
L 383.09193 298.875854 
z
" style="fill:#ea8e83;stroke:#6a6a6a;stroke-linejoin:miter;stroke-width:1.5;"/>
   </g>
   <g id="patch_11">
    <path clip-path="url(#p7544b16200)" d="M 448.37793 454.898647 
L 480.36807 454.898647 
L 480.36807 375.565024 
L 448.37793 375.565024 
L 448.37793 454.898647 
z
" style="fill:#96cac1;stroke:#6a6a6a;stroke-linejoin:miter;stroke-width:1.5;"/>
   </g>
   <g id="patch_12">
    <path clip-path="url(#p7544b16200)" d="M 481.02093 462.832009 
L 513.01107 462.832009 
L 513.01107 343.831574 
L 481.02093 343.831574 
L 481.02093 462.832009 
z
" style="fill:#f6f6bc;stroke:#6a6a6a;stroke-linejoin:miter;stroke-width:1.5;"/>
   </g>
   <g id="patch_13">
    <path clip-path="url(#p7544b16200)" d="M 513.66393 330.609304 
L 545.65407 330.609304 
L 545.65407 214.253322 
L 513.66393 214.253322 
L 513.66393 330.609304 
z
" style="fill:#c1bed6;stroke:#6a6a6a;stroke-linejoin:miter;stroke-width:1.5;"/>
   </g>
   <g id="patch_14">
    <path clip-path="url(#p7544b16200)" d="M 546.30693 290.942492 
L 578.29707 290.942492 
L 578.29707 182.519873 
L 546.30693 182.519873 
L 546.30693 290.942492 
z
" style="fill:#ea8e83;stroke:#6a6a6a;stroke-linejoin:miter;stroke-width:1.5;"/>
   </g>
   <g id="patch_15">
    <path clip-path="url(#p7544b16200)" d="M 611.59293 457.543101 
L 643.58307 457.543101 
L 643.58307 347.798255 
L 611.59293 347.798255 
L 611.59293 457.543101 
z
" style="fill:#96cac1;stroke:#6a6a6a;stroke-linejoin:miter;stroke-width:1.5;"/>
   </g>
   <g id="patch_16">
    <path clip-path="url(#p7544b16200)" d="M 644.23593 468.120918 
L 676.22607 468.120918 
L 676.22607 339.864893 
L 644.23593 339.864893 
L 644.23593 468.120918 
z
" style="fill:#f6f6bc;stroke:#6a6a6a;stroke-linejoin:miter;stroke-width:1.5;"/>
   </g>
   <g id="patch_17">
    <path clip-path="url(#p7544b16200)" d="M 676.87893 314.742579 
L 708.86907 314.742579 
L 708.86907 216.897776 
L 676.87893 216.897776 
L 676.87893 314.742579 
z
" style="fill:#c1bed6;stroke:#6a6a6a;stroke-linejoin:miter;stroke-width:1.5;"/>
   </g>
   <g id="patch_18">
    <path clip-path="url(#p7544b16200)" d="M 709.52193 289.620265 
L 741.51207 289.620265 
L 741.51207 181.197646 
L 709.52193 181.197646 
L 709.52193 289.620265 
z
" style="fill:#ea8e83;stroke:#6a6a6a;stroke-linejoin:miter;stroke-width:1.5;"/>
   </g>
   <g id="patch_19">
    <path clip-path="url(#p7544b16200)" d="M 186.9075 521.01 
L 186.9075 521.01 
L 186.9075 521.01 
L 186.9075 521.01 
z
" style="fill:#96cac1;stroke:#6a6a6a;stroke-linejoin:miter;stroke-width:0.75;"/>
   </g>
   <g id="patch_20">
    <path clip-path="url(#p7544b16200)" d="M 186.9075 521.01 
L 186.9075 521.01 
L 186.9075 521.01 
L 186.9075 521.01 
z
" style="fill:#f6f6bc;stroke:#6a6a6a;stroke-linejoin:miter;stroke-width:0.75;"/>
   </g>
   <g id="patch_21">
    <path clip-path="url(#p7544b16200)" d="M 186.9075 521.01 
L 186.9075 521.01 
L 186.9075 521.01 
L 186.9075 521.01 
z
" style="fill:#c1bed6;stroke:#6a6a6a;stroke-linejoin:miter;stroke-width:0.75;"/>
   </g>
   <g id="patch_22">
    <path clip-path="url(#p7544b16200)" d="M 186.9075 521.01 
L 186.9075 521.01 
L 186.9075 521.01 
L 186.9075 521.01 
z
" style="fill:#ea8e83;stroke:#6a6a6a;stroke-linejoin:miter;stroke-width:0.75;"/>
   </g>
   <g id="line2d_10">
    <path clip-path="url(#p7544b16200)" d="M 137.943 460.187555 
L 137.943 515.721092 
" style="fill:none;stroke:#6a6a6a;stroke-linecap:round;stroke-width:1.5;"/>
   </g>
   <g id="line2d_11">
    <path clip-path="url(#p7544b16200)" d="M 137.943 380.853932 
L 137.943 293.586946 
" style="fill:none;stroke:#6a6a6a;stroke-linecap:round;stroke-width:1.5;"/>
   </g>
   <g id="line2d_12">
    <path clip-path="url(#p7544b16200)" d="M 129.945465 515.721092 
L 145.940535 515.721092 
" style="fill:none;stroke:#6a6a6a;stroke-linecap:round;stroke-width:1.5;"/>
   </g>
   <g id="line2d_13">
    <path clip-path="url(#p7544b16200)" d="M 129.945465 293.586946 
L 145.940535 293.586946 
" style="fill:none;stroke:#6a6a6a;stroke-linecap:round;stroke-width:1.5;"/>
   </g>
   <g id="line2d_14"/>
   <g id="line2d_15">
    <path clip-path="url(#p7544b16200)" d="M 170.586 483.987642 
L 170.586 515.721092 
" style="fill:none;stroke:#6a6a6a;stroke-linecap:round;stroke-width:1.5;"/>
   </g>
   <g id="line2d_16">
    <path clip-path="url(#p7544b16200)" d="M 170.586 380.853932 
L 170.586 325.320395 
" style="fill:none;stroke:#6a6a6a;stroke-linecap:round;stroke-width:1.5;"/>
   </g>
   <g id="line2d_17">
    <path clip-path="url(#p7544b16200)" d="M 162.588465 515.721092 
L 178.583535 515.721092 
" style="fill:none;stroke:#6a6a6a;stroke-linecap:round;stroke-width:1.5;"/>
   </g>
   <g id="line2d_18">
    <path clip-path="url(#p7544b16200)" d="M 162.588465 325.320395 
L 178.583535 325.320395 
" style="fill:none;stroke:#6a6a6a;stroke-linecap:round;stroke-width:1.5;"/>
   </g>
   <g id="line2d_19"/>
   <g id="line2d_20">
    <path clip-path="url(#p7544b16200)" d="M 203.229 317.387033 
L 203.229 468.120918 
" style="fill:none;stroke:#6a6a6a;stroke-linecap:round;stroke-width:1.5;"/>
   </g>
   <g id="line2d_21">
    <path clip-path="url(#p7544b16200)" d="M 203.229 214.253322 
L 203.229 182.519873 
" style="fill:none;stroke:#6a6a6a;stroke-linecap:round;stroke-width:1.5;"/>
   </g>
   <g id="line2d_22">
    <path clip-path="url(#p7544b16200)" d="M 195.231465 468.120918 
L 211.226535 468.120918 
" style="fill:none;stroke:#6a6a6a;stroke-linecap:round;stroke-width:1.5;"/>
   </g>
   <g id="line2d_23">
    <path clip-path="url(#p7544b16200)" d="M 195.231465 182.519873 
L 211.226535 182.519873 
" style="fill:none;stroke:#6a6a6a;stroke-linecap:round;stroke-width:1.5;"/>
   </g>
   <g id="line2d_24"/>
   <g id="line2d_25">
    <path clip-path="url(#p7544b16200)" d="M 235.872 285.653584 
L 235.872 372.920569 
" style="fill:none;stroke:#6a6a6a;stroke-linecap:round;stroke-width:1.5;"/>
   </g>
   <g id="line2d_26">
    <path clip-path="url(#p7544b16200)" d="M 235.872 182.519873 
L 235.872 150.786424 
" style="fill:none;stroke:#6a6a6a;stroke-linecap:round;stroke-width:1.5;"/>
   </g>
   <g id="line2d_27">
    <path clip-path="url(#p7544b16200)" d="M 227.874465 372.920569 
L 243.869535 372.920569 
" style="fill:none;stroke:#6a6a6a;stroke-linecap:round;stroke-width:1.5;"/>
   </g>
   <g id="line2d_28">
    <path clip-path="url(#p7544b16200)" d="M 227.874465 150.786424 
L 243.869535 150.786424 
" style="fill:none;stroke:#6a6a6a;stroke-linecap:round;stroke-width:1.5;"/>
   </g>
   <g id="line2d_29"/>
   <g id="line2d_30">
    <path clip-path="url(#p7544b16200)" d="M 301.158 468.120918 
L 301.158 505.143275 
" style="fill:none;stroke:#6a6a6a;stroke-linecap:round;stroke-width:1.5;"/>
   </g>
   <g id="line2d_31">
    <path clip-path="url(#p7544b16200)" d="M 301.158 362.342753 
L 301.158 304.164762 
" style="fill:none;stroke:#6a6a6a;stroke-linecap:round;stroke-width:1.5;"/>
   </g>
   <g id="line2d_32">
    <path clip-path="url(#p7544b16200)" d="M 293.160465 505.143275 
L 309.155535 505.143275 
" style="fill:none;stroke:#6a6a6a;stroke-linecap:round;stroke-width:1.5;"/>
   </g>
   <g id="line2d_33">
    <path clip-path="url(#p7544b16200)" d="M 293.160465 304.164762 
L 309.155535 304.164762 
" style="fill:none;stroke:#6a6a6a;stroke-linecap:round;stroke-width:1.5;"/>
   </g>
   <g id="line2d_34"/>
   <g id="line2d_35">
    <path clip-path="url(#p7544b16200)" d="M 333.801 465.476464 
L 333.801 494.565459 
" style="fill:none;stroke:#6a6a6a;stroke-linecap:round;stroke-width:1.5;"/>
   </g>
   <g id="line2d_36">
    <path clip-path="url(#p7544b16200)" d="M 333.801 349.120482 
L 333.801 293.586946 
" style="fill:none;stroke:#6a6a6a;stroke-linecap:round;stroke-width:1.5;"/>
   </g>
   <g id="line2d_37">
    <path clip-path="url(#p7544b16200)" d="M 325.803465 494.565459 
L 341.798535 494.565459 
" style="fill:none;stroke:#6a6a6a;stroke-linecap:round;stroke-width:1.5;"/>
   </g>
   <g id="line2d_38">
    <path clip-path="url(#p7544b16200)" d="M 325.803465 293.586946 
L 341.798535 293.586946 
" style="fill:none;stroke:#6a6a6a;stroke-linecap:round;stroke-width:1.5;"/>
   </g>
   <g id="line2d_39"/>
   <g id="line2d_40">
    <path clip-path="url(#p7544b16200)" d="M 366.444 338.542666 
L 366.444 489.276551 
" style="fill:none;stroke:#6a6a6a;stroke-linecap:round;stroke-width:1.5;"/>
   </g>
   <g id="line2d_41">
    <path clip-path="url(#p7544b16200)" d="M 366.444 230.120047 
L 366.444 182.519873 
" style="fill:none;stroke:#6a6a6a;stroke-linecap:round;stroke-width:1.5;"/>
   </g>
   <g id="line2d_42">
    <path clip-path="url(#p7544b16200)" d="M 358.446465 489.276551 
L 374.441535 489.276551 
" style="fill:none;stroke:#6a6a6a;stroke-linecap:round;stroke-width:1.5;"/>
   </g>
   <g id="line2d_43">
    <path clip-path="url(#p7544b16200)" d="M 358.446465 182.519873 
L 374.441535 182.519873 
" style="fill:none;stroke:#6a6a6a;stroke-linecap:round;stroke-width:1.5;"/>
   </g>
   <g id="line2d_44"/>
   <g id="line2d_45">
    <path clip-path="url(#p7544b16200)" d="M 399.087 298.875854 
L 399.087 446.965285 
" style="fill:none;stroke:#6a6a6a;stroke-linecap:round;stroke-width:1.5;"/>
   </g>
   <g id="line2d_46">
    <path clip-path="url(#p7544b16200)" d="M 399.087 182.519873 
L 399.087 150.786424 
" style="fill:none;stroke:#6a6a6a;stroke-linecap:round;stroke-width:1.5;"/>
   </g>
   <g id="line2d_47">
    <path clip-path="url(#p7544b16200)" d="M 391.089465 446.965285 
L 407.084535 446.965285 
" style="fill:none;stroke:#6a6a6a;stroke-linecap:round;stroke-width:1.5;"/>
   </g>
   <g id="line2d_48">
    <path clip-path="url(#p7544b16200)" d="M 391.089465 150.786424 
L 407.084535 150.786424 
" style="fill:none;stroke:#6a6a6a;stroke-linecap:round;stroke-width:1.5;"/>
   </g>
   <g id="line2d_49"/>
   <g id="line2d_50">
    <path clip-path="url(#p7544b16200)" d="M 464.373 454.898647 
L 464.373 505.143275 
" style="fill:none;stroke:#6a6a6a;stroke-linecap:round;stroke-width:1.5;"/>
   </g>
   <g id="line2d_51">
    <path clip-path="url(#p7544b16200)" d="M 464.373 375.565024 
L 464.373 293.586946 
" style="fill:none;stroke:#6a6a6a;stroke-linecap:round;stroke-width:1.5;"/>
   </g>
   <g id="line2d_52">
    <path clip-path="url(#p7544b16200)" d="M 456.375465 505.143275 
L 472.370535 505.143275 
" style="fill:none;stroke:#6a6a6a;stroke-linecap:round;stroke-width:1.5;"/>
   </g>
   <g id="line2d_53">
    <path clip-path="url(#p7544b16200)" d="M 456.375465 293.586946 
L 472.370535 293.586946 
" style="fill:none;stroke:#6a6a6a;stroke-linecap:round;stroke-width:1.5;"/>
   </g>
   <g id="line2d_54"/>
   <g id="line2d_55">
    <path clip-path="url(#p7544b16200)" d="M 497.016 462.832009 
L 497.016 505.143275 
" style="fill:none;stroke:#6a6a6a;stroke-linecap:round;stroke-width:1.5;"/>
   </g>
   <g id="line2d_56">
    <path clip-path="url(#p7544b16200)" d="M 497.016 343.831574 
L 497.016 293.586946 
" style="fill:none;stroke:#6a6a6a;stroke-linecap:round;stroke-width:1.5;"/>
   </g>
   <g id="line2d_57">
    <path clip-path="url(#p7544b16200)" d="M 489.018465 505.143275 
L 505.013535 505.143275 
" style="fill:none;stroke:#6a6a6a;stroke-linecap:round;stroke-width:1.5;"/>
   </g>
   <g id="line2d_58">
    <path clip-path="url(#p7544b16200)" d="M 489.018465 293.586946 
L 505.013535 293.586946 
" style="fill:none;stroke:#6a6a6a;stroke-linecap:round;stroke-width:1.5;"/>
   </g>
   <g id="line2d_59"/>
   <g id="line2d_60">
    <path clip-path="url(#p7544b16200)" d="M 529.659 330.609304 
L 529.659 415.231835 
" style="fill:none;stroke:#6a6a6a;stroke-linecap:round;stroke-width:1.5;"/>
   </g>
   <g id="line2d_61">
    <path clip-path="url(#p7544b16200)" d="M 529.659 214.253322 
L 529.659 182.519873 
" style="fill:none;stroke:#6a6a6a;stroke-linecap:round;stroke-width:1.5;"/>
   </g>
   <g id="line2d_62">
    <path clip-path="url(#p7544b16200)" d="M 521.661465 415.231835 
L 537.656535 415.231835 
" style="fill:none;stroke:#6a6a6a;stroke-linecap:round;stroke-width:1.5;"/>
   </g>
   <g id="line2d_63">
    <path clip-path="url(#p7544b16200)" d="M 521.661465 182.519873 
L 537.656535 182.519873 
" style="fill:none;stroke:#6a6a6a;stroke-linecap:round;stroke-width:1.5;"/>
   </g>
   <g id="line2d_64"/>
   <g id="line2d_65">
    <path clip-path="url(#p7544b16200)" d="M 562.302 290.942492 
L 562.302 446.965285 
" style="fill:none;stroke:#6a6a6a;stroke-linecap:round;stroke-width:1.5;"/>
   </g>
   <g id="line2d_66">
    <path clip-path="url(#p7544b16200)" d="M 562.302 182.519873 
L 562.302 150.786424 
" style="fill:none;stroke:#6a6a6a;stroke-linecap:round;stroke-width:1.5;"/>
   </g>
   <g id="line2d_67">
    <path clip-path="url(#p7544b16200)" d="M 554.304465 446.965285 
L 570.299535 446.965285 
" style="fill:none;stroke:#6a6a6a;stroke-linecap:round;stroke-width:1.5;"/>
   </g>
   <g id="line2d_68">
    <path clip-path="url(#p7544b16200)" d="M 554.304465 150.786424 
L 570.299535 150.786424 
" style="fill:none;stroke:#6a6a6a;stroke-linecap:round;stroke-width:1.5;"/>
   </g>
   <g id="line2d_69"/>
   <g id="line2d_70">
    <path clip-path="url(#p7544b16200)" d="M 627.588 457.543101 
L 627.588 505.143275 
" style="fill:none;stroke:#6a6a6a;stroke-linecap:round;stroke-width:1.5;"/>
   </g>
   <g id="line2d_71">
    <path clip-path="url(#p7544b16200)" d="M 627.588 347.798255 
L 627.588 283.009129 
" style="fill:none;stroke:#6a6a6a;stroke-linecap:round;stroke-width:1.5;"/>
   </g>
   <g id="line2d_72">
    <path clip-path="url(#p7544b16200)" d="M 619.590465 505.143275 
L 635.585535 505.143275 
" style="fill:none;stroke:#6a6a6a;stroke-linecap:round;stroke-width:1.5;"/>
   </g>
   <g id="line2d_73">
    <path clip-path="url(#p7544b16200)" d="M 619.590465 283.009129 
L 635.585535 283.009129 
" style="fill:none;stroke:#6a6a6a;stroke-linecap:round;stroke-width:1.5;"/>
   </g>
   <g id="line2d_74"/>
   <g id="line2d_75">
    <path clip-path="url(#p7544b16200)" d="M 660.231 468.120918 
L 660.231 499.854367 
" style="fill:none;stroke:#6a6a6a;stroke-linecap:round;stroke-width:1.5;"/>
   </g>
   <g id="line2d_76">
    <path clip-path="url(#p7544b16200)" d="M 660.231 339.864893 
L 660.231 293.586946 
" style="fill:none;stroke:#6a6a6a;stroke-linecap:round;stroke-width:1.5;"/>
   </g>
   <g id="line2d_77">
    <path clip-path="url(#p7544b16200)" d="M 652.233465 499.854367 
L 668.228535 499.854367 
" style="fill:none;stroke:#6a6a6a;stroke-linecap:round;stroke-width:1.5;"/>
   </g>
   <g id="line2d_78">
    <path clip-path="url(#p7544b16200)" d="M 652.233465 293.586946 
L 668.228535 293.586946 
" style="fill:none;stroke:#6a6a6a;stroke-linecap:round;stroke-width:1.5;"/>
   </g>
   <g id="line2d_79"/>
   <g id="line2d_80">
    <path clip-path="url(#p7544b16200)" d="M 692.874 314.742579 
L 692.874 415.231835 
" style="fill:none;stroke:#6a6a6a;stroke-linecap:round;stroke-width:1.5;"/>
   </g>
   <g id="line2d_81">
    <path clip-path="url(#p7544b16200)" d="M 692.874 216.897776 
L 692.874 182.519873 
" style="fill:none;stroke:#6a6a6a;stroke-linecap:round;stroke-width:1.5;"/>
   </g>
   <g id="line2d_82">
    <path clip-path="url(#p7544b16200)" d="M 684.876465 415.231835 
L 700.871535 415.231835 
" style="fill:none;stroke:#6a6a6a;stroke-linecap:round;stroke-width:1.5;"/>
   </g>
   <g id="line2d_83">
    <path clip-path="url(#p7544b16200)" d="M 684.876465 182.519873 
L 700.871535 182.519873 
" style="fill:none;stroke:#6a6a6a;stroke-linecap:round;stroke-width:1.5;"/>
   </g>
   <g id="line2d_84"/>
   <g id="line2d_85">
    <path clip-path="url(#p7544b16200)" d="M 725.517 289.620265 
L 725.517 446.965285 
" style="fill:none;stroke:#6a6a6a;stroke-linecap:round;stroke-width:1.5;"/>
   </g>
   <g id="line2d_86">
    <path clip-path="url(#p7544b16200)" d="M 725.517 181.197646 
L 725.517 150.786424 
" style="fill:none;stroke:#6a6a6a;stroke-linecap:round;stroke-width:1.5;"/>
   </g>
   <g id="line2d_87">
    <path clip-path="url(#p7544b16200)" d="M 717.519465 446.965285 
L 733.514535 446.965285 
" style="fill:none;stroke:#6a6a6a;stroke-linecap:round;stroke-width:1.5;"/>
   </g>
   <g id="line2d_88">
    <path clip-path="url(#p7544b16200)" d="M 717.519465 150.786424 
L 733.514535 150.786424 
" style="fill:none;stroke:#6a6a6a;stroke-linecap:round;stroke-width:1.5;"/>
   </g>
   <g id="line2d_89"/>
   <g id="line2d_90">
    <path clip-path="url(#p7544b16200)" d="M 121.94793 452.254193 
L 153.93807 452.254193 
" style="fill:none;stroke:#6a6a6a;stroke-linecap:round;stroke-width:1.5;"/>
   </g>
   <g id="line2d_91">
    <defs>
     <path d="M 0 -3 
L -3 3 
L 3 3 
z
" id="m761ae0a18a" style="stroke:#55a868;stroke-linejoin:miter;"/>
    </defs>
    <g clip-path="url(#p7544b16200)">
     <use style="fill:#55a868;stroke:#55a868;stroke-linejoin:miter;" x="137.943" xlink:href="#m761ae0a18a" y="424.487425"/>
    </g>
   </g>
   <g id="line2d_92">
    <path clip-path="url(#p7544b16200)" d="M 154.59093 436.387468 
L 186.58107 436.387468 
" style="fill:none;stroke:#6a6a6a;stroke-linecap:round;stroke-width:1.5;"/>
   </g>
   <g id="line2d_93">
    <g clip-path="url(#p7544b16200)">
     <use style="fill:#55a868;stroke:#55a868;stroke-linejoin:miter;" x="170.586" xlink:href="#m761ae0a18a" y="424.487425"/>
    </g>
   </g>
   <g id="line2d_94">
    <path clip-path="url(#p7544b16200)" d="M 187.23393 230.120047 
L 219.22407 230.120047 
" style="fill:none;stroke:#6a6a6a;stroke-linecap:round;stroke-width:1.5;"/>
   </g>
   <g id="line2d_95">
    <g clip-path="url(#p7544b16200)">
     <use style="fill:#55a868;stroke:#55a868;stroke-linejoin:miter;" x="203.229" xlink:href="#m761ae0a18a" y="271.770199"/>
    </g>
   </g>
   <g id="line2d_96">
    <path clip-path="url(#p7544b16200)" d="M 219.87693 198.386598 
L 251.86707 198.386598 
" style="fill:none;stroke:#6a6a6a;stroke-linecap:round;stroke-width:1.5;"/>
   </g>
   <g id="line2d_97">
    <g clip-path="url(#p7544b16200)">
     <use style="fill:#55a868;stroke:#55a868;stroke-linejoin:miter;" x="235.872" xlink:href="#m761ae0a18a" y="236.070069"/>
    </g>
   </g>
   <g id="line2d_98">
    <path clip-path="url(#p7544b16200)" d="M 285.16293 425.809652 
L 317.15307 425.809652 
" style="fill:none;stroke:#6a6a6a;stroke-linecap:round;stroke-width:1.5;"/>
   </g>
   <g id="line2d_99">
    <g clip-path="url(#p7544b16200)">
     <use style="fill:#55a868;stroke:#55a868;stroke-linejoin:miter;" x="301.158" xlink:href="#m761ae0a18a" y="417.876289"/>
    </g>
   </g>
   <g id="line2d_100">
    <path clip-path="url(#p7544b16200)" d="M 317.80593 420.520744 
L 349.79607 420.520744 
" style="fill:none;stroke:#6a6a6a;stroke-linecap:round;stroke-width:1.5;"/>
   </g>
   <g id="line2d_101">
    <g clip-path="url(#p7544b16200)">
     <use style="fill:#55a868;stroke:#55a868;stroke-linejoin:miter;" x="333.801" xlink:href="#m761ae0a18a" y="407.298473"/>
    </g>
   </g>
   <g id="line2d_102">
    <path clip-path="url(#p7544b16200)" d="M 350.44893 283.009129 
L 382.43907 283.009129 
" style="fill:none;stroke:#6a6a6a;stroke-linecap:round;stroke-width:1.5;"/>
   </g>
   <g id="line2d_103">
    <g clip-path="url(#p7544b16200)">
     <use style="fill:#55a868;stroke:#55a868;stroke-linejoin:miter;" x="366.444" xlink:href="#m761ae0a18a" y="294.248059"/>
    </g>
   </g>
   <g id="line2d_104">
    <path clip-path="url(#p7544b16200)" d="M 383.09193 208.964414 
L 415.08207 208.964414 
" style="fill:none;stroke:#6a6a6a;stroke-linecap:round;stroke-width:1.5;"/>
   </g>
   <g id="line2d_105">
    <g clip-path="url(#p7544b16200)">
     <use style="fill:#55a868;stroke:#55a868;stroke-linejoin:miter;" x="399.087" xlink:href="#m761ae0a18a" y="249.292339"/>
    </g>
   </g>
   <g id="line2d_106">
    <path clip-path="url(#p7544b16200)" d="M 448.37793 415.231835 
L 480.36807 415.231835 
" style="fill:none;stroke:#6a6a6a;stroke-linecap:round;stroke-width:1.5;"/>
   </g>
   <g id="line2d_107">
    <g clip-path="url(#p7544b16200)">
     <use style="fill:#55a868;stroke:#55a868;stroke-linejoin:miter;" x="464.373" xlink:href="#m761ae0a18a" y="409.942927"/>
    </g>
   </g>
   <g id="line2d_108">
    <path clip-path="url(#p7544b16200)" d="M 481.02093 399.365111 
L 513.01107 399.365111 
" style="fill:none;stroke:#6a6a6a;stroke-linecap:round;stroke-width:1.5;"/>
   </g>
   <g id="line2d_109">
    <g clip-path="url(#p7544b16200)">
     <use style="fill:#55a868;stroke:#55a868;stroke-linejoin:miter;" x="497.016" xlink:href="#m761ae0a18a" y="402.670678"/>
    </g>
   </g>
   <g id="line2d_110">
    <path clip-path="url(#p7544b16200)" d="M 513.66393 288.298038 
L 545.65407 288.298038 
" style="fill:none;stroke:#6a6a6a;stroke-linecap:round;stroke-width:1.5;"/>
   </g>
   <g id="line2d_111">
    <g clip-path="url(#p7544b16200)">
     <use style="fill:#55a868;stroke:#55a868;stroke-linejoin:miter;" x="529.659" xlink:href="#m761ae0a18a" y="287.636924"/>
    </g>
   </g>
   <g id="line2d_112">
    <path clip-path="url(#p7544b16200)" d="M 546.30693 198.386598 
L 578.29707 198.386598 
" style="fill:none;stroke:#6a6a6a;stroke-linecap:round;stroke-width:1.5;"/>
   </g>
   <g id="line2d_113">
    <g clip-path="url(#p7544b16200)">
     <use style="fill:#55a868;stroke:#55a868;stroke-linejoin:miter;" x="562.302" xlink:href="#m761ae0a18a" y="247.970112"/>
    </g>
   </g>
   <g id="line2d_114">
    <path clip-path="url(#p7544b16200)" d="M 611.59293 404.654019 
L 643.58307 404.654019 
" style="fill:none;stroke:#6a6a6a;stroke-linecap:round;stroke-width:1.5;"/>
   </g>
   <g id="line2d_115">
    <g clip-path="url(#p7544b16200)">
     <use style="fill:#55a868;stroke:#55a868;stroke-linejoin:miter;" x="627.588" xlink:href="#m761ae0a18a" y="404.654019"/>
    </g>
   </g>
   <g id="line2d_116">
    <path clip-path="url(#p7544b16200)" d="M 644.23593 383.498386 
L 676.22607 383.498386 
" style="fill:none;stroke:#6a6a6a;stroke-linecap:round;stroke-width:1.5;"/>
   </g>
   <g id="line2d_117">
    <g clip-path="url(#p7544b16200)">
     <use style="fill:#55a868;stroke:#55a868;stroke-linejoin:miter;" x="660.231" xlink:href="#m761ae0a18a" y="399.034554"/>
    </g>
   </g>
   <g id="line2d_118">
    <path clip-path="url(#p7544b16200)" d="M 676.87893 280.364675 
L 708.86907 280.364675 
" style="fill:none;stroke:#6a6a6a;stroke-linecap:round;stroke-width:1.5;"/>
   </g>
   <g id="line2d_119">
    <g clip-path="url(#p7544b16200)">
     <use style="fill:#55a868;stroke:#55a868;stroke-linejoin:miter;" x="692.874" xlink:href="#m761ae0a18a" y="281.356346"/>
    </g>
   </g>
   <g id="line2d_120">
    <path clip-path="url(#p7544b16200)" d="M 709.52193 198.386598 
L 741.51207 198.386598 
" style="fill:none;stroke:#6a6a6a;stroke-linecap:round;stroke-width:1.5;"/>
   </g>
   <g id="line2d_121">
    <g clip-path="url(#p7544b16200)">
     <use style="fill:#55a868;stroke:#55a868;stroke-linejoin:miter;" x="725.517" xlink:href="#m761ae0a18a" y="246.978442"/>
    </g>
   </g>
   <g id="patch_23">
    <path d="M 105.3 521.01 
L 105.3 71.4528 
" style="fill:none;stroke:#ffffff;stroke-linecap:square;stroke-linejoin:miter;stroke-width:1.25;"/>
   </g>
   <g id="patch_24">
    <path d="M 758.16 521.01 
L 758.16 71.4528 
" style="fill:none;stroke:#ffffff;stroke-linecap:square;stroke-linejoin:miter;stroke-width:1.25;"/>
   </g>
   <g id="patch_25">
    <path d="M 105.3 521.01 
L 758.16 521.01 
" style="fill:none;stroke:#ffffff;stroke-linecap:square;stroke-linejoin:miter;stroke-width:1.25;"/>
   </g>
   <g id="patch_26">
    <path d="M 105.3 71.4528 
L 758.16 71.4528 
" style="fill:none;stroke:#ffffff;stroke-linecap:square;stroke-linejoin:miter;stroke-width:1.25;"/>
   </g>
   <g id="text_16">
    <!-- Minimum and Maximum of Range Interval (N/cm) for Consistent Pseudo-Stiffness -->
    <g style="fill:#262626;" transform="translate(161.364375 65.4528)scale(0.15 -0.15)">
     <defs>
      <path d="M 475 0 
L 475 4581 
L 1388 4581 
L 2472 1338 
Q 2622 884 2691 659 
Q 2769 909 2934 1394 
L 4031 4581 
L 4847 4581 
L 4847 0 
L 4263 0 
L 4263 3834 
L 2931 0 
L 2384 0 
L 1059 3900 
L 1059 0 
L 475 0 
z
" id="ArialMT-4d" transform="scale(0.015625)"/>
      <path d="M 2575 0 
L 2575 419 
Q 2259 -75 1647 -75 
Q 1250 -75 917 144 
Q 584 363 401 755 
Q 219 1147 219 1656 
Q 219 2153 384 2558 
Q 550 2963 881 3178 
Q 1213 3394 1622 3394 
Q 1922 3394 2156 3267 
Q 2391 3141 2538 2938 
L 2538 4581 
L 3097 4581 
L 3097 0 
L 2575 0 
z
M 797 1656 
Q 797 1019 1065 703 
Q 1334 388 1700 388 
Q 2069 388 2326 689 
Q 2584 991 2584 1609 
Q 2584 2291 2321 2609 
Q 2059 2928 1675 2928 
Q 1300 2928 1048 2622 
Q 797 2316 797 1656 
z
" id="ArialMT-64" transform="scale(0.015625)"/>
      <path d="M 47 0 
L 1259 1725 
L 138 3319 
L 841 3319 
L 1350 2541 
Q 1494 2319 1581 2169 
Q 1719 2375 1834 2534 
L 2394 3319 
L 3066 3319 
L 1919 1756 
L 3153 0 
L 2463 0 
L 1781 1031 
L 1600 1309 
L 728 0 
L 47 0 
z
" id="ArialMT-78" transform="scale(0.015625)"/>
      <path d="M 213 1659 
Q 213 2581 725 3025 
Q 1153 3394 1769 3394 
Q 2453 3394 2887 2945 
Q 3322 2497 3322 1706 
Q 3322 1066 3130 698 
Q 2938 331 2570 128 
Q 2203 -75 1769 -75 
Q 1072 -75 642 372 
Q 213 819 213 1659 
z
M 791 1659 
Q 791 1022 1069 705 
Q 1347 388 1769 388 
Q 2188 388 2466 706 
Q 2744 1025 2744 1678 
Q 2744 2294 2464 2611 
Q 2184 2928 1769 2928 
Q 1347 2928 1069 2612 
Q 791 2297 791 1659 
z
" id="ArialMT-6f" transform="scale(0.015625)"/>
      <path d="M 503 0 
L 503 4581 
L 2534 4581 
Q 3147 4581 3465 4457 
Q 3784 4334 3975 4021 
Q 4166 3709 4166 3331 
Q 4166 2844 3850 2509 
Q 3534 2175 2875 2084 
Q 3116 1969 3241 1856 
Q 3506 1613 3744 1247 
L 4541 0 
L 3778 0 
L 3172 953 
Q 2906 1366 2734 1584 
Q 2563 1803 2427 1890 
Q 2291 1978 2150 2013 
Q 2047 2034 1813 2034 
L 1109 2034 
L 1109 0 
L 503 0 
z
M 1109 2559 
L 2413 2559 
Q 2828 2559 3062 2645 
Q 3297 2731 3419 2920 
Q 3541 3109 3541 3331 
Q 3541 3656 3305 3865 
Q 3069 4075 2559 4075 
L 1109 4075 
L 1109 2559 
z
" id="ArialMT-52" transform="scale(0.015625)"/>
      <path d="M 319 -275 
L 866 -356 
Q 900 -609 1056 -725 
Q 1266 -881 1628 -881 
Q 2019 -881 2231 -725 
Q 2444 -569 2519 -288 
Q 2563 -116 2559 434 
Q 2191 0 1641 0 
Q 956 0 581 494 
Q 206 988 206 1678 
Q 206 2153 378 2554 
Q 550 2956 876 3175 
Q 1203 3394 1644 3394 
Q 2231 3394 2613 2919 
L 2613 3319 
L 3131 3319 
L 3131 450 
Q 3131 -325 2973 -648 
Q 2816 -972 2473 -1159 
Q 2131 -1347 1631 -1347 
Q 1038 -1347 672 -1080 
Q 306 -813 319 -275 
z
M 784 1719 
Q 784 1066 1043 766 
Q 1303 466 1694 466 
Q 2081 466 2343 764 
Q 2606 1063 2606 1700 
Q 2606 2309 2336 2618 
Q 2066 2928 1684 2928 
Q 1309 2928 1046 2623 
Q 784 2319 784 1719 
z
" id="ArialMT-67" transform="scale(0.015625)"/>
      <path d="M 597 0 
L 597 4581 
L 1203 4581 
L 1203 0 
L 597 0 
z
" id="ArialMT-49" transform="scale(0.015625)"/>
      <path d="M 1344 0 
L 81 3319 
L 675 3319 
L 1388 1331 
Q 1503 1009 1600 663 
Q 1675 925 1809 1294 
L 2547 3319 
L 3125 3319 
L 1869 0 
L 1344 0 
z
" id="ArialMT-76" transform="scale(0.015625)"/>
      <path d="M 3763 1606 
L 4369 1453 
Q 4178 706 3683 314 
Q 3188 -78 2472 -78 
Q 1731 -78 1267 223 
Q 803 525 561 1097 
Q 319 1669 319 2325 
Q 319 3041 592 3573 
Q 866 4106 1370 4382 
Q 1875 4659 2481 4659 
Q 3169 4659 3637 4309 
Q 4106 3959 4291 3325 
L 3694 3184 
Q 3534 3684 3231 3912 
Q 2928 4141 2469 4141 
Q 1941 4141 1586 3887 
Q 1231 3634 1087 3207 
Q 944 2781 944 2328 
Q 944 1744 1114 1308 
Q 1284 872 1643 656 
Q 2003 441 2422 441 
Q 2931 441 3284 734 
Q 3638 1028 3763 1606 
z
" id="ArialMT-43" transform="scale(0.015625)"/>
      <path d="M 494 0 
L 494 4581 
L 2222 4581 
Q 2678 4581 2919 4538 
Q 3256 4481 3484 4323 
Q 3713 4166 3852 3881 
Q 3991 3597 3991 3256 
Q 3991 2672 3619 2267 
Q 3247 1863 2275 1863 
L 1100 1863 
L 1100 0 
L 494 0 
z
M 1100 2403 
L 2284 2403 
Q 2872 2403 3119 2622 
Q 3366 2841 3366 3238 
Q 3366 3525 3220 3729 
Q 3075 3934 2838 4000 
Q 2684 4041 2272 4041 
L 1100 4041 
L 1100 2403 
z
" id="ArialMT-50" transform="scale(0.015625)"/>
      <path d="M 203 1375 
L 203 1941 
L 1931 1941 
L 1931 1375 
L 203 1375 
z
" id="ArialMT-2d" transform="scale(0.015625)"/>
     </defs>
     <use xlink:href="#ArialMT-4d"/>
     <use x="83.300781" xlink:href="#ArialMT-69"/>
     <use x="105.517578" xlink:href="#ArialMT-6e"/>
     <use x="161.132812" xlink:href="#ArialMT-69"/>
     <use x="183.349609" xlink:href="#ArialMT-6d"/>
     <use x="266.650391" xlink:href="#ArialMT-75"/>
     <use x="322.265625" xlink:href="#ArialMT-6d"/>
     <use x="405.566406" xlink:href="#ArialMT-20"/>
     <use x="433.349609" xlink:href="#ArialMT-61"/>
     <use x="488.964844" xlink:href="#ArialMT-6e"/>
     <use x="544.580078" xlink:href="#ArialMT-64"/>
     <use x="600.195312" xlink:href="#ArialMT-20"/>
     <use x="627.978516" xlink:href="#ArialMT-4d"/>
     <use x="711.279297" xlink:href="#ArialMT-61"/>
     <use x="766.894531" xlink:href="#ArialMT-78"/>
     <use x="816.894531" xlink:href="#ArialMT-69"/>
     <use x="839.111328" xlink:href="#ArialMT-6d"/>
     <use x="922.412109" xlink:href="#ArialMT-75"/>
     <use x="978.027344" xlink:href="#ArialMT-6d"/>
     <use x="1061.328125" xlink:href="#ArialMT-20"/>
     <use x="1089.111328" xlink:href="#ArialMT-6f"/>
     <use x="1144.726562" xlink:href="#ArialMT-66"/>
     <use x="1172.509766" xlink:href="#ArialMT-20"/>
     <use x="1200.292969" xlink:href="#ArialMT-52"/>
     <use x="1272.509766" xlink:href="#ArialMT-61"/>
     <use x="1328.125" xlink:href="#ArialMT-6e"/>
     <use x="1383.740234" xlink:href="#ArialMT-67"/>
     <use x="1439.355469" xlink:href="#ArialMT-65"/>
     <use x="1494.970703" xlink:href="#ArialMT-20"/>
     <use x="1522.753906" xlink:href="#ArialMT-49"/>
     <use x="1550.537109" xlink:href="#ArialMT-6e"/>
     <use x="1606.152344" xlink:href="#ArialMT-74"/>
     <use x="1633.935547" xlink:href="#ArialMT-65"/>
     <use x="1689.550781" xlink:href="#ArialMT-72"/>
     <use x="1722.851562" xlink:href="#ArialMT-76"/>
     <use x="1772.851562" xlink:href="#ArialMT-61"/>
     <use x="1828.466797" xlink:href="#ArialMT-6c"/>
     <use x="1850.683594" xlink:href="#ArialMT-20"/>
     <use x="1878.466797" xlink:href="#ArialMT-28"/>
     <use x="1911.767578" xlink:href="#ArialMT-4e"/>
     <use x="1983.984375" xlink:href="#ArialMT-2f"/>
     <use x="2011.767578" xlink:href="#ArialMT-63"/>
     <use x="2061.767578" xlink:href="#ArialMT-6d"/>
     <use x="2145.068359" xlink:href="#ArialMT-29"/>
     <use x="2178.369141" xlink:href="#ArialMT-20"/>
     <use x="2206.152344" xlink:href="#ArialMT-66"/>
     <use x="2233.935547" xlink:href="#ArialMT-6f"/>
     <use x="2289.550781" xlink:href="#ArialMT-72"/>
     <use x="2322.851562" xlink:href="#ArialMT-20"/>
     <use x="2350.634766" xlink:href="#ArialMT-43"/>
     <use x="2422.851562" xlink:href="#ArialMT-6f"/>
     <use x="2478.466797" xlink:href="#ArialMT-6e"/>
     <use x="2534.082031" xlink:href="#ArialMT-73"/>
     <use x="2584.082031" xlink:href="#ArialMT-69"/>
     <use x="2606.298828" xlink:href="#ArialMT-73"/>
     <use x="2656.298828" xlink:href="#ArialMT-74"/>
     <use x="2684.082031" xlink:href="#ArialMT-65"/>
     <use x="2739.697266" xlink:href="#ArialMT-6e"/>
     <use x="2795.3125" xlink:href="#ArialMT-74"/>
     <use x="2823.095703" xlink:href="#ArialMT-20"/>
     <use x="2850.878906" xlink:href="#ArialMT-50"/>
     <use x="2917.578125" xlink:href="#ArialMT-73"/>
     <use x="2967.578125" xlink:href="#ArialMT-65"/>
     <use x="3023.193359" xlink:href="#ArialMT-75"/>
     <use x="3078.808594" xlink:href="#ArialMT-64"/>
     <use x="3134.423828" xlink:href="#ArialMT-6f"/>
     <use x="3190.039062" xlink:href="#ArialMT-2d"/>
     <use x="3223.339844" xlink:href="#ArialMT-53"/>
     <use x="3290.039062" xlink:href="#ArialMT-74"/>
     <use x="3317.822266" xlink:href="#ArialMT-69"/>
     <use x="3340.039062" xlink:href="#ArialMT-66"/>
     <use x="3366.072266" xlink:href="#ArialMT-66"/>
     <use x="3393.855469" xlink:href="#ArialMT-6e"/>
     <use x="3449.470703" xlink:href="#ArialMT-65"/>
     <use x="3505.085938" xlink:href="#ArialMT-73"/>
     <use x="3555.085938" xlink:href="#ArialMT-73"/>
    </g>
   </g>
   <g id="legend_1">
    <g id="patch_27">
     <path d="M 113 143.57155 
L 264.954688 143.57155 
Q 267.154688 143.57155 267.154688 141.37155 
L 267.154688 79.1528 
Q 267.154688 76.9528 264.954688 76.9528 
L 113 76.9528 
Q 110.8 76.9528 110.8 79.1528 
L 110.8 141.37155 
Q 110.8 143.57155 113 143.57155 
z
" style="fill:#eaeaf2;opacity:0.8;stroke:#cccccc;stroke-linejoin:miter;"/>
    </g>
    <g id="patch_28">
     <path d="M 115.2 89.367331 
L 137.2 89.367331 
L 137.2 81.667331 
L 115.2 81.667331 
z
" style="fill:#96cac1;stroke:#6a6a6a;stroke-linejoin:miter;stroke-width:0.75;"/>
    </g>
    <g id="text_17">
     <!-- Small Object, Minimum -->
     <g style="fill:#262626;" transform="translate(146 89.367331)scale(0.11 -0.11)">
      <defs>
       <path d="M 309 2231 
Q 309 3372 921 4017 
Q 1534 4663 2503 4663 
Q 3138 4663 3647 4359 
Q 4156 4056 4423 3514 
Q 4691 2972 4691 2284 
Q 4691 1588 4409 1038 
Q 4128 488 3612 205 
Q 3097 -78 2500 -78 
Q 1853 -78 1343 234 
Q 834 547 571 1087 
Q 309 1628 309 2231 
z
M 934 2222 
Q 934 1394 1379 917 
Q 1825 441 2497 441 
Q 3181 441 3623 922 
Q 4066 1403 4066 2288 
Q 4066 2847 3877 3264 
Q 3688 3681 3323 3911 
Q 2959 4141 2506 4141 
Q 1863 4141 1398 3698 
Q 934 3256 934 2222 
z
" id="ArialMT-4f" transform="scale(0.015625)"/>
       <path d="M 419 3928 
L 419 4581 
L 981 4581 
L 981 3928 
L 419 3928 
z
M -294 -1288 
L -188 -809 
Q -19 -853 78 -853 
Q 250 -853 334 -739 
Q 419 -625 419 -169 
L 419 3319 
L 981 3319 
L 981 -181 
Q 981 -794 822 -1034 
Q 619 -1347 147 -1347 
Q -81 -1347 -294 -1288 
z
" id="ArialMT-6a" transform="scale(0.015625)"/>
       <path d="M 569 0 
L 569 641 
L 1209 641 
L 1209 0 
Q 1209 -353 1084 -570 
Q 959 -788 688 -906 
L 531 -666 
Q 709 -588 793 -436 
Q 878 -284 888 0 
L 569 0 
z
" id="ArialMT-2c" transform="scale(0.015625)"/>
      </defs>
      <use xlink:href="#ArialMT-53"/>
      <use x="66.699219" xlink:href="#ArialMT-6d"/>
      <use x="150" xlink:href="#ArialMT-61"/>
      <use x="205.615234" xlink:href="#ArialMT-6c"/>
      <use x="227.832031" xlink:href="#ArialMT-6c"/>
      <use x="250.048828" xlink:href="#ArialMT-20"/>
      <use x="277.832031" xlink:href="#ArialMT-4f"/>
      <use x="355.615234" xlink:href="#ArialMT-62"/>
      <use x="411.230469" xlink:href="#ArialMT-6a"/>
      <use x="433.447266" xlink:href="#ArialMT-65"/>
      <use x="489.0625" xlink:href="#ArialMT-63"/>
      <use x="539.0625" xlink:href="#ArialMT-74"/>
      <use x="566.845703" xlink:href="#ArialMT-2c"/>
      <use x="594.628906" xlink:href="#ArialMT-20"/>
      <use x="622.412109" xlink:href="#ArialMT-4d"/>
      <use x="705.712891" xlink:href="#ArialMT-69"/>
      <use x="727.929688" xlink:href="#ArialMT-6e"/>
      <use x="783.544922" xlink:href="#ArialMT-69"/>
      <use x="805.761719" xlink:href="#ArialMT-6d"/>
      <use x="889.0625" xlink:href="#ArialMT-75"/>
      <use x="944.677734" xlink:href="#ArialMT-6d"/>
     </g>
    </g>
    <g id="patch_29">
     <path d="M 115.2 105.197019 
L 137.2 105.197019 
L 137.2 97.497019 
L 115.2 97.497019 
z
" style="fill:#f6f6bc;stroke:#6a6a6a;stroke-linejoin:miter;stroke-width:0.75;"/>
    </g>
    <g id="text_18">
     <!-- Large Object, Minimum -->
     <g style="fill:#262626;" transform="translate(146 105.197019)scale(0.11 -0.11)">
      <defs>
       <path d="M 469 0 
L 469 4581 
L 1075 4581 
L 1075 541 
L 3331 541 
L 3331 0 
L 469 0 
z
" id="ArialMT-4c" transform="scale(0.015625)"/>
      </defs>
      <use xlink:href="#ArialMT-4c"/>
      <use x="55.615234" xlink:href="#ArialMT-61"/>
      <use x="111.230469" xlink:href="#ArialMT-72"/>
      <use x="144.53125" xlink:href="#ArialMT-67"/>
      <use x="200.146484" xlink:href="#ArialMT-65"/>
      <use x="255.761719" xlink:href="#ArialMT-20"/>
      <use x="283.544922" xlink:href="#ArialMT-4f"/>
      <use x="361.328125" xlink:href="#ArialMT-62"/>
      <use x="416.943359" xlink:href="#ArialMT-6a"/>
      <use x="439.160156" xlink:href="#ArialMT-65"/>
      <use x="494.775391" xlink:href="#ArialMT-63"/>
      <use x="544.775391" xlink:href="#ArialMT-74"/>
      <use x="572.558594" xlink:href="#ArialMT-2c"/>
      <use x="600.341797" xlink:href="#ArialMT-20"/>
      <use x="628.125" xlink:href="#ArialMT-4d"/>
      <use x="711.425781" xlink:href="#ArialMT-69"/>
      <use x="733.642578" xlink:href="#ArialMT-6e"/>
      <use x="789.257812" xlink:href="#ArialMT-69"/>
      <use x="811.474609" xlink:href="#ArialMT-6d"/>
      <use x="894.775391" xlink:href="#ArialMT-75"/>
      <use x="950.390625" xlink:href="#ArialMT-6d"/>
     </g>
    </g>
    <g id="patch_30">
     <path d="M 115.2 121.026706 
L 137.2 121.026706 
L 137.2 113.326706 
L 115.2 113.326706 
z
" style="fill:#c1bed6;stroke:#6a6a6a;stroke-linejoin:miter;stroke-width:0.75;"/>
    </g>
    <g id="text_19">
     <!-- Small Object, Maximum -->
     <g style="fill:#262626;" transform="translate(146 121.026706)scale(0.11 -0.11)">
      <use xlink:href="#ArialMT-53"/>
      <use x="66.699219" xlink:href="#ArialMT-6d"/>
      <use x="150" xlink:href="#ArialMT-61"/>
      <use x="205.615234" xlink:href="#ArialMT-6c"/>
      <use x="227.832031" xlink:href="#ArialMT-6c"/>
      <use x="250.048828" xlink:href="#ArialMT-20"/>
      <use x="277.832031" xlink:href="#ArialMT-4f"/>
      <use x="355.615234" xlink:href="#ArialMT-62"/>
      <use x="411.230469" xlink:href="#ArialMT-6a"/>
      <use x="433.447266" xlink:href="#ArialMT-65"/>
      <use x="489.0625" xlink:href="#ArialMT-63"/>
      <use x="539.0625" xlink:href="#ArialMT-74"/>
      <use x="566.845703" xlink:href="#ArialMT-2c"/>
      <use x="594.628906" xlink:href="#ArialMT-20"/>
      <use x="622.412109" xlink:href="#ArialMT-4d"/>
      <use x="705.712891" xlink:href="#ArialMT-61"/>
      <use x="761.328125" xlink:href="#ArialMT-78"/>
      <use x="811.328125" xlink:href="#ArialMT-69"/>
      <use x="833.544922" xlink:href="#ArialMT-6d"/>
      <use x="916.845703" xlink:href="#ArialMT-75"/>
      <use x="972.460938" xlink:href="#ArialMT-6d"/>
     </g>
    </g>
    <g id="patch_31">
     <path d="M 115.2 136.856394 
L 137.2 136.856394 
L 137.2 129.156394 
L 115.2 129.156394 
z
" style="fill:#ea8e83;stroke:#6a6a6a;stroke-linejoin:miter;stroke-width:0.75;"/>
    </g>
    <g id="text_20">
     <!-- Large Object, Maximum -->
     <g style="fill:#262626;" transform="translate(146 136.856394)scale(0.11 -0.11)">
      <use xlink:href="#ArialMT-4c"/>
      <use x="55.615234" xlink:href="#ArialMT-61"/>
      <use x="111.230469" xlink:href="#ArialMT-72"/>
      <use x="144.53125" xlink:href="#ArialMT-67"/>
      <use x="200.146484" xlink:href="#ArialMT-65"/>
      <use x="255.761719" xlink:href="#ArialMT-20"/>
      <use x="283.544922" xlink:href="#ArialMT-4f"/>
      <use x="361.328125" xlink:href="#ArialMT-62"/>
      <use x="416.943359" xlink:href="#ArialMT-6a"/>
      <use x="439.160156" xlink:href="#ArialMT-65"/>
      <use x="494.775391" xlink:href="#ArialMT-63"/>
      <use x="544.775391" xlink:href="#ArialMT-74"/>
      <use x="572.558594" xlink:href="#ArialMT-2c"/>
      <use x="600.341797" xlink:href="#ArialMT-20"/>
      <use x="628.125" xlink:href="#ArialMT-4d"/>
      <use x="711.425781" xlink:href="#ArialMT-61"/>
      <use x="767.041016" xlink:href="#ArialMT-78"/>
      <use x="817.041016" xlink:href="#ArialMT-69"/>
      <use x="839.257812" xlink:href="#ArialMT-6d"/>
      <use x="922.558594" xlink:href="#ArialMT-75"/>
      <use x="978.173828" xlink:href="#ArialMT-6d"/>
     </g>
    </g>
   </g>
  </g>
 </g>
 <defs>
  <clipPath id="p7544b16200">
   <rect height="449.5572" width="652.86" x="105.3" y="71.4528"/>
  </clipPath>
 </defs>
</svg>
